{"title":"Tu Mera 22 Main Tera 22 -720P XVID  DVDRIP 2012 PUNJABI MOVIE GO","uid":8934286,"size":1402089294,"categoryP":"video","categoryS":"hd___movies","magnet":"?xt=urn:btih:e9be173ea43139f6e51ac6fd3b8d737ed64720ff&amp;dn=Tu+Mera+22+Main+Tera+22+-720P+XVID++DVDRIP+2012+PUNJABI+MOVIE+GO&amp;tr=udp%3A%2F%2Ftracker.openbittorrent.com%3A80&amp;tr=udp%3A%2F%2Fopen.demonii.com%3A1337&amp;tr=udp%3A%2F%2Ftracker.coppersurfer.tk%3A6969&amp;tr=udp%3A%2F%2Fexodus.desync.com%3A6969","seeders":3,"leechers":4,"uploader":"jatt13","files":10,"time":1379527339,"description":"[img]http://s22.postimg.org/lk5ao1vip/cooltext1123245186.png[/img]\n\n[img]http://imageshack.us/a/img689/8361/3iwx.jpg[/img]\n\nIMDB  [img]http://www.imdb.com/title/tt2697592/[/img]\n\nDirector:Amit Prasher\nWriter:Dheeraj Rattan\nStars:Karamjeet Anmol, Binnu Dhillon, Amrinder Gill \n\n[img]http://imageshack.us/a/img34/4066/l3rw.jpg[/img]\n\nVideo\nID                             : 0\nFormat                         : AVC\nFormat/Info                    : Advanced Video Codec\nFormat profile                 : &lt;a class=&quot;__cf_email__&quot; href=&quot;/cdn-cgi/l/email-protection&quot; data-cfemail=&quot;92dff3fbfcd2dea7bca3&quot;&gt;[email&amp;#160;protected]&lt;/a&gt;&lt;script cf-hash='f9e31' type=&quot;text/javascript&quot;&gt;\n/* &lt;![CDATA[ */!function(){try{var t=&quot;currentScript&quot;in document?document.currentScript:function(){for(var t=document.getElementsByTagName(&quot;script&quot;),e=t.length;e--;)if(t[e].getAttribute(&quot;cf-hash&quot;))return t[e]}();if(t&amp;&amp;t.previousSibling){var e,r,n,i,c=t.previousSibling,a=c.getAttribute(&quot;data-cfemail&quot;);if(a){for(e=&quot;&quot;,r=parseInt(a.substr(0,2),16),n=2;a.length-n;n+=2)i=parseInt(a.substr(n,2),16)^r,e+=String.fromCharCode(i);e=document.createTextNode(e),c.parentNode.replaceChild(e,c)}}}catch(u){}}();/* ]]&gt; */&lt;/script&gt;\nFormat settings, CABAC         : Yes\nFormat settings, ReFrames      : 1 frame\nCodec ID                       : H264\nDuration                       : 1h 54mn\nBit rate                       : 1 408 Kbps\nWidth                          : 1 280 pixels\nHeight                         : 720 pixels\nDisplay aspect ratio           : 16:9\nFrame rate                     : 25.000 fps\nColor space                    : YUV\nChroma subsampling             : 4:2:0\nBit depth                      : 8 bits\nScan type                      : Progressive\nBits/(Pixel*Frame)             : 0.061\nStream size                    : 1.13 GiB (87%)\n\nAudio\nID                             : 1\nFormat                         : MPEG Audio\nFormat version                 : Version 1\nFormat profile                 : Layer 3\nCodec ID                       : 55\nCodec ID/Hint                  : MP3\nDuration                       : 1h 54mn\nBit rate mode                  : Constant\nBit rate                       : 192 Kbps\nChannel(s)                     : 2 channels\nSampling rate                  : 44.1 KHz\nCompression mode               : Lossy\nStream size                    : 158 MiB (12%)\nAlignment                      : Split accross interleaves\nInterleave, duration           : 41 ms (1.03 video frame)\nInterleave, preload duration   : 49 ms\n\n[img]http://imageshack.us/a/img822/6581/aanr.jpg[/img]\n\n[img]http://imageshack.us/a/img163/2052/j2km.png[/img]\n\n[img]http://imageshack.us/a/img802/3701/vz7n.png[/img]\n\n[img]http://imageshack.us/a/img823/7630/ae7v.png[/img]\n\n[img]http://imageshack.us/a/img823/1295/hds0.png[/img]\n\n[img]http://imageshack.us/a/img853/2623/e8ru.png[/img]","torrent":{"xt":"urn:btih:e9be173ea43139f6e51ac6fd3b8d737ed64720ff","amp;dn":"Tu+Mera+22+Main+Tera+22+-720P+XVID++DVDRIP+2012+PUNJABI+MOVIE+GO","amp;tr":["udp%3A%2F%2Ftracker.openbittorrent.com%3A80","udp%3A%2F%2Fopen.demonii.com%3A1337","udp%3A%2F%2Ftracker.coppersurfer.tk%3A6969","udp%3A%2F%2Fexodus.desync.com%3A6969"],"infoHash":"e9be173ea43139f6e51ac6fd3b8d737ed64720ff","infoHashBuffer":{"type":"Buffer","data":[233,190,23,62,164,49,57,246,229,26,198,253,59,141,115,126,214,71,32,255]},"announce":[],"urlList":[]}}